<?xml version="1.0" encoding="UTF-8" standalone="no"?>
<svg
   width="270"
   height="259"
   version="1.1"
   id="svg4"
   sodipodi:docname="stsn-icon.svg"
   inkscape:version="1.4 (e7c3feb100, 2024-10-09)"
   xmlns:inkscape="http://www.inkscape.org/namespaces/inkscape"
   xmlns:sodipodi="http://sodipodi.sourceforge.net/DTD/sodipodi-0.dtd"
   xmlns="http://www.w3.org/2000/svg"
   xmlns:svg="http://www.w3.org/2000/svg">
  <defs
     id="defs4" />
  <sodipodi:namedview
     id="namedview4"
     pagecolor="#ffffff"
     bordercolor="#000000"
     borderopacity="0.25"
     inkscape:showpageshadow="2"
     inkscape:pageopacity="0.0"
     inkscape:pagecheckerboard="0"
     inkscape:deskcolor="#d1d1d1"
     inkscape:zoom="2.6936027"
     inkscape:cx="148.5"
     inkscape:cy="148.5"
     inkscape:window-width="1920"
     inkscape:window-height="1011"
     inkscape:window-x="0"
     inkscape:window-y="0"
     inkscape:window-maximized="1"
     inkscape:current-layer="svg4" />
  <ellipse
     style="fill:#d8d8d8;stroke:#000000"
     cx="134.90074"
     cy="129.52499"
     rx="131.686"
     ry="126.141"
     id="ellipse1" />
  <path
     fill="#21395a"
     d="m 182.50803,98.57914 q 3.40482,0.62487 6.86691,0.93689 3.46209,0.31201 6.94359,0.30784 c 2.24691,5.35602 4.89467,10.41753 6.29814,16.02967 q 0.20771,0.80089 0.39309,1.60597 0.18538,0.80507 0.34747,1.61347 0.16209,0.80925 0.30088,1.62099 0.1388,0.81174 0.2543,1.62683 0.11647,0.81424 0.20867,1.63099 0.0922,0.81675 0.16209,1.63517 0.0689,0.81842 0.11453,1.63851 0.0456,0.81925 0.0679,1.64017 0.0223,0.82009 0.0214,1.64101 -9.7e-4,0.82093 -0.0252,1.64101 -0.0243,0.82009 -0.0718,1.64018 -0.0485,0.81925 -0.11939,1.63767 -0.0709,0.81842 -0.16597,1.63517 -0.0941,0.81675 -0.21255,1.631 -0.11745,0.81424 -0.25818,1.62599 -0.14171,0.81174 -0.30574,1.62015 -0.16403,0.80841 -0.35038,1.61348 -0.18732,0.80424 -0.39794,1.60514 -0.20965,0.80006 -0.44259,1.59595 -0.23294,0.7959 -0.4882,1.58679 -0.25527,0.79088 -0.53286,1.57593 -0.27855,0.78505 -0.57847,1.56426 -0.29991,0.77921 -0.62311,1.55174 -0.32224,0.7717 -0.66583,1.53756 -0.34456,0.76502 -0.71047,1.52338 -0.36591,0.75751 -0.75414,1.50752 -0.38727,0.75001 -0.79589,1.49168 -0.40861,0.74166 -0.83858,1.47499 -0.42998,0.73249 -0.8813,1.4558 -0.45035,0.72331 -0.92109,1.43744 -0.4717,0.71331 -0.96282,1.41743 -0.49112,0.70329 -1.00262,1.39657 c -3.0457,3.70749 -6.18847,7.16387 -10.00676,10.32075 0.44453,-3.0601 0.21062,-6.34546 0.20965,-9.42975 l -0.003,-16.42845 c -0.002,-17.38285 0.17082,-34.77487 -0.0738,-52.15689 z"
     id="path1"
     style="stroke-width:0.899851" />
  <path
     fill="#426b9e"
     d="m 167.82012,185.92471 q -6.04191,2.67133 -12.58658,4.24143 -1.35786,0.30951 -2.73221,0.56063 -1.37435,0.25194 -2.76229,0.44466 -1.38697,0.19272 -2.78365,0.3262 -1.39667,0.13432 -2.79917,0.20773 -1.4025,0.0743 -2.80694,0.0893 -1.40542,0.0142 -2.80986,-0.0309 -1.40347,-0.0451 -2.80402,-0.15017 -1.39959,-0.10511 -2.79142,-0.26863 -1.39279,-0.16435 -2.77394,-0.38794 -1.38017,-0.22275 -2.74676,-0.5039 -1.36659,-0.28198 -2.71571,-0.62069 -1.34814,-0.33955 -2.67591,-0.73499 -1.32776,-0.39628 -2.63029,-0.84846 -1.3035,-0.45217 -2.57885,-0.95857 -1.27536,-0.50724 -2.52062,-1.06703 -1.24429,-0.56063 -2.45559,-1.17299 C 95.44726,176.91376 84.26026,163.52873 79.396547,147.89618 q -0.479762,-1.58678 -0.868968,-3.19275 -0.389205,-1.60514 -0.687079,-3.22529 -0.297776,-1.61932 -0.503444,-3.24948 -0.205667,-1.63017 -0.318741,-3.26784 -0.113073,-1.63684 -0.133165,-3.27618 -0.02019,-1.64017 0.05261,-3.27868 0.07279,-1.6385 0.23828,-3.272 0.165582,-1.63351 0.423467,-3.25866 0.257885,-1.62516 0.607588,-3.23697 0.349703,-1.61181 0.790253,-3.20777 0.440647,-1.59512 0.97117,-3.17023 0.530427,-1.5751 1.149565,-3.12684 0.619138,-1.55091 1.325435,-3.07428 0.706297,-1.52338 1.498005,-3.01506 0.791806,-1.4925 1.666888,-2.94914 0.875471,-1.45747 1.83247,-2.87573 0.818199,-1.21636 1.705319,-2.39602 0.88615,-1.17966 1.84121,-2.31927 0.95408,-1.14045 1.97223,-2.23835 1.01912,-1.09873 2.10035,-2.15158 1.08124,-1.05368 2.22168,-2.05898 1.14044,-1.00613 2.33815,-1.9622 1.19673,-0.95524 2.44782,-1.85876 1.25206,-0.903511 2.55362,-1.752798 1.30155,-0.849287 2.65067,-1.641843 1.34912,-0.791723 2.74288,-1.52588 1.3928,-0.734158 2.82733,-1.407414 1.43355,-0.673256 2.90497,-1.284776 1.47141,-0.610685 2.97582,-1.158801 1.50538,-0.548115 3.03988,-1.030323 1.5345,-0.483042 3.09521,-0.900177 1.55973,-0.416301 3.14276,-0.76586 1.99165,-0.448003 4.01629,-0.7717 2.02465,-0.324531 4.07065,-0.522253 2.04697,-0.197722 4.10462,-0.268635 2.05764,-0.07008 4.11529,-0.01335 2.05862,0.0559 4.10656,0.240269 2.04794,0.18354 4.0755,0.493054 2.02755,0.310348 4.02308,0.745003 1.9965,0.434655 3.95127,0.991113 c 2.39929,0.674924 4.93738,1.440784 7.12508,2.536181 0.15627,1.537559 -0.22614,6.166089 0.46783,7.281508 -0.60177,0.850962 -0.28536,94.621242 -0.23683,104.447272 z"
     id="path2"
     style="stroke-width:0.899851" />
  <path
     fill="#fefefe"
     d="m 129.11404,84.04949 c 0.0165,-0.002 0.032,-0.005 0.0485,-0.006 3.73483,-0.23025 12.51088,-0.45384 15.96132,0.10679 1.34427,0.21858 2.72638,0.65574 3.7688,1.43745 1.48791,1.11625 2.32941,2.62711 2.43132,4.32152 0.0942,1.55674 -0.33777,3.20443 -1.58691,4.37991 -3.55235,3.34376 -13.29026,2.06065 -18.31597,2.20331 -5.06064,0.1435 -9.55156,1.62683 -13.01947,4.88048 -3.7125,3.48224 -6.22923,9.66502 -5.94776,14.41535 0.45424,7.68613 6.73006,7.47172 13.60473,7.41249 4.56953,-0.0392 15.32656,-0.53894 19.27394,0.22525 1.42191,0.27531 2.772,0.80758 3.83867,1.67438 1.88586,1.53423 2.30515,3.55233 2.38474,5.68806 0.32029,8.5863 0.0311,17.26355 0.0233,25.85653 -0.004,3.98364 0.47462,11.04406 -0.24167,14.75573 -0.31156,1.61598 -0.93759,3.09931 -2.27894,4.29482 -2.08968,1.86126 -4.72288,2.52701 -7.66571,2.59208 -12.77391,0.27948 -22.22937,-0.35957 -31.82849,-8.2818 -4.51032,-3.84598 -9.79906,-10.87971 -10.35909,-16.4493 -0.1815,-1.81537 0.36203,-3.53147 1.749,-4.92553 1.36271,-1.36904 3.1418,-2.1983 5.24797,-2.32344 6.15644,-0.36625 6.50391,6.05596 8.27524,9.60745 q 0.42511,0.85179 0.95797,1.6577 0.53382,0.8059 1.16956,1.55507 0.63476,0.74918 1.36367,1.43245 0.72988,0.68326 1.54324,1.29145 c 2.94476,2.20831 7.50847,3.94609 11.48496,3.67412 1.71212,-0.11763 3.48636,-0.82259 4.58118,-1.97972 0.80656,-0.85179 1.20547,-1.88712 1.40056,-2.96083 0.45715,-2.51615 0.099,-5.38271 0.12035,-7.93724 0.033,-3.97113 0.46782,-8.23258 -0.002,-12.172 -0.18732,-1.57343 -0.58526,-3.12017 -2.09162,-4.15049 -5.24408,-3.5857 -26.53199,1.37571 -32.62825,-2.98085 -2.02853,-1.44996 -2.96418,-3.66078 -3.19809,-5.86241 -0.30865,-2.91411 -0.0281,-6.01342 -0.033,-8.94588 -0.0146,-9.87776 0.1417,-16.78718 7.97241,-24.75363 5.67406,-5.77315 13.25241,-9.09354 21.99546,-9.73343 z"
     style="stroke-width:0.899851;stroke-opacity:0"
     id="path3" />
  <path
     fill="#21395a"
     d="m 124.11066,14.518179 c 15.92638,0.0075 31.96535,0.374504 47.87911,0.02628 q -0.14559,13.718235 -0.10482,27.436053 c -0.008,6.768683 -0.24265,13.611616 0.20479,20.367367 -2.85062,-1.324987 -6.04094,-2.210565 -9.14294,-2.985018 q -1.27826,-0.317189 -2.56818,-0.595084 -1.29088,-0.277896 -2.59147,-0.51608 -1.30155,-0.238267 -2.61185,-0.436573 -1.31029,-0.198223 -2.62738,-0.356317 -1.31806,-0.158094 -2.64097,-0.27581 -1.32291,-0.117632 -2.65068,-0.194802 -1.32679,-0.07717 -2.65649,-0.113627 -1.32971,-0.03646 -2.66039,-0.03229 -1.33067,0.0043 -2.65941,0.04914 -1.3297,0.04488 -2.65553,0.130396 -1.32679,0.08551 -2.6497,0.211571 -1.32194,0.126058 -2.63806,0.292495 -1.31612,0.166437 -2.62447,0.373002 -1.30835,0.206566 -2.607,0.453009 -1.29962,0.246443 -2.58759,0.532515 -1.28797,0.285987 -2.56332,0.611269 c -20.62985,5.277258 -37.527493,18.00313 -47.651503,34.163775 -11.155938,17.80833 -14.104682,39.61364 -7.255436,59.01626 6.582139,18.6451 20.757771,34.86164 40.912999,44.11453 q 1.54421,0.7108 3.12627,1.35569 1.58303,0.64489 3.20003,1.22304 1.61699,0.57731 3.26505,1.08705 1.64806,0.50974 3.3233,0.9494 1.67523,0.43966 3.37279,0.80924 1.69853,0.36958 3.41453,0.66742 1.71697,0.29783 3.4485,0.52309 1.7325,0.22525 3.4747,0.37792 1.74221,0.15267 3.49121,0.23276 1.749,0.0793 3.49994,0.0859 1.75191,0.006 3.50188,-0.0609 1.749,-0.0676 3.49315,-0.20773 1.74414,-0.14016 3.47761,-0.3529 1.73347,-0.21357 3.45335,-0.49889 1.71989,-0.28532 3.42133,-0.64239 1.70144,-0.35707 3.38056,-0.78505 c 20.66478,-5.4361 37.85293,-19.13732 47.86648,-35.38723 q 0.50374,-0.8276 0.98418,-1.66604 0.48044,-0.83844 0.93759,-1.68606 0.45617,-0.84845 0.88809,-1.70608 0.43191,-0.85763 0.83955,-1.7236 0.40765,-0.86597 0.79103,-1.74029 0.38242,-0.87515 0.74056,-1.75697 0.35815,-0.88266 0.69106,-1.77199 0.33194,-0.89017 0.63962,-1.78617 0.30767,-0.89601 0.58915,-1.79869 0.28147,-0.90268 0.5377,-1.81036 0.25624,-0.90852 0.48627,-1.82205 0.23003,-0.91269 0.43385,-1.83039 0.20479,-0.91853 0.38241,-1.83956 0.17762,-0.92187 0.32903,-1.84791 0.15238,-0.92521 0.27759,-1.85291 0.1252,-0.92855 0.2242,-1.85876 0.099,-0.93104 0.17083,-1.86292 0.0728,-0.93272 0.11841,-1.86627 0.0456,-0.93354 0.065,-1.86793 0.0194,-0.93438 0.0117,-1.86876 -0.007,-0.93438 -0.0408,-1.86793 -0.034,-0.93438 -0.0941,-1.8671 -0.0602,-0.93271 -0.14753,-1.86459 -0.0864,-0.93105 -0.19994,-1.86042 -0.11356,-0.92938 -0.25332,-1.85625 -0.13977,-0.92688 -0.30574,-1.85041 -0.16597,-0.92354 -0.35814,-1.84291 -0.19218,-0.91936 -0.41056,-1.83539 -0.21838,-0.91519 -0.46297,-1.82538 -0.24459,-0.91103 -0.51441,-1.81538 -0.26983,-0.90518 -0.56586,-1.80452 -0.29603,-0.89934 -0.61729,-1.79201 c -1.01912,-2.84486 -2.09744,-5.87326 -3.53003,-8.5788 7.19109,-1.32232 14.01529,-2.90743 20.95014,-4.99728 1.3598,5.82404 3.31844,11.47789 4.28127,17.38285 3.762,23.0951 -0.48724,48.04478 -15.71965,67.69684 -20.54152,26.49892 -55.01972,40.12839 -89.99,47.12291 q -0.0466,6.10685 0.0582,12.21288 c 1.52382,0.51891 5.544,-0.79924 7.26097,-1.19051 11.54709,-2.63462 22.90976,-5.62882 33.89487,-9.70673 30.85694,-11.45453 58.42746,-31.58212 71.01113,-58.88945 q 0.59303,-1.30647 1.14918,-2.62461 0.55615,-1.31898 1.07444,-2.64881 0.51927,-1.32983 0.99971,-2.66966 0.48141,-1.33984 0.924,-2.68969 0.44356,-1.34985 0.84829,-2.70804 0.40474,-1.35903 0.77065,-2.72556 0.36688,-1.36654 0.69397,-2.74058 0.32806,-1.37404 0.61632,-2.75392 0.28924,-1.38072 0.53868,-2.76644 0.24944,-1.38573 0.46006,-2.77645 0.21061,-1.39073 0.38144,-2.78563 0.17082,-1.3949 0.30282,-2.7923 0.132,-1.39824 0.22421,-2.79814 0.0922,-1.40074 0.14461,-2.80232 0.0524,-1.40157 0.066,-2.80398 0.0126,-1.40241 -0.0136,-2.80481 -0.0272,-1.40241 -0.0932,-2.80315 -0.066,-1.40158 -0.17179,-2.80065 -0.1058,-1.3999 -0.25042,-2.79647 -0.14558,-1.3974 -0.33,-2.79063 -0.18441,-1.39323 -0.40861,-2.78229 -0.22324,-1.3899 -0.48627,-2.77395 -0.26303,-1.38405 -0.56488,-2.76227 -0.30282,-1.37821 -0.6435,-2.74975 -0.34068,-1.37154 -0.72018,-2.73557 -0.3795,-1.3632 -0.79685,-2.71889 -0.41832,-1.35569 -0.8745,-2.70303 -0.4552,-1.34652 -0.94923,-2.68302 -0.49403,-1.3365 -1.02592,-2.66215 -0.53091,-1.32649 -1.09967,-2.64047 -0.56877,-1.31481 -1.17441,-2.6171 -0.60565,-1.3023 -1.24818,-2.591247 -0.71532,-1.424933 -1.46753,-2.834849 c -3.32814,1.666871 -7.36676,2.797307 -10.99676,3.915226 -15.22756,4.69194 -30.58032,7.13718 -46.55425,3.51896 q -7.68512,-1.77199 -14.82282,-4.793722 c -0.69397,-1.115419 -0.31156,-5.743949 -0.46783,-7.281508 19.96888,8.8149 32.98058,10.28321 54.56937,4.292319 7.46965,-2.073161 14.58115,-4.80623 21.615,-7.782071 q 0.80461,1.315644 1.57235,2.647973 0.76773,1.332329 1.49762,2.679676 0.72891,1.34818 1.42094,2.710543 0.69106,1.363197 1.34329,2.739742 0.65321,1.376548 1.26662,2.766438 0.61341,1.3899 1.18703,2.79231 0.57459,1.4024 1.10841,2.81649 0.53479,1.41325 1.02882,2.83819 0.49403,1.42493 0.9473,2.85904 0.45423,1.43495 0.86673,2.87823 0.41347,1.44329 0.78521,2.89492 0.3727,1.45246 0.70367,2.9116 0.33097,1.45914 0.62021,2.92412 0.2902,1.46581 0.5377,2.93746 0.24848,1.47082 0.45521,2.94664 0.20674,1.47583 0.37077,2.95582 0.16499,1.48 0.28826,2.9625 0.12229,1.48333 0.20382,2.96833 0.0806,1.485 0.11939,2.97083 0.0398,1.48667 0.0359,2.97251 -0.003,1.48667 -0.0476,2.97334 -0.0456,1.48583 -0.132,2.97083 -0.0873,1.48417 -0.21644,2.96667 -0.12909,1.48249 -0.29991,2.96165 -0.17083,1.48 -0.38339,2.95499 -0.21256,1.47499 -0.46685,2.94581 -0.25429,1.46998 -0.54935,2.93496 -0.29603,1.46498 -0.63283,2.92328 -0.33679,1.45747 -0.71532,2.90826 -0.37756,1.4508 -0.79685,2.89325 -0.4193,1.44162 -0.87838,2.8749 -0.46006,1.43327 -0.95992,2.85654 c -10.34258,29.26869 -35.51381,51.35015 -66.45907,65.48352 -17.53464,8.00816 -36.83769,13.55188 -56.22616,17.08501 -1.47141,0.26781 -6.06715,1.36237 -7.23185,1.0687 -0.0941,-0.0242 -0.18635,-0.0551 -0.27856,-0.0817 l -0.0689,-16.10892 c -0.0136,-3.59571 0.0776,-7.20393 -0.22518,-10.79295 -0.80267,-0.93689 -1.42482,-1.4825 -2.65164,-1.98557 -3.80374,-1.56008 -8.26262,-2.05397 -12.20709,-3.3913 -3.61641,-1.22555 -10.63182,-4.96975 -13.67461,-5.3435 -1.34136,-0.16436 -2.4915,0.0275 -3.57177,0.74166 -4.111409,2.71972 -7.797896,6.54068 -11.426828,9.74094 -3.282529,2.89325 -6.986001,5.75479 -9.967162,8.86829 -6.361428,-6.39885 -14.582114,-12.87612 -21.617616,-18.85784 l -8.765283,-7.37578 c -1.760258,-1.47249 -3.479752,-3.07178 -5.446551,-4.33821 3.811984,-1.99056 9.000359,-6.99869 12.322585,-9.77681 2.881676,-2.40937 6.047151,-4.74449 8.716462,-7.32072 0.889059,-0.85762 1.959132,-1.90547 2.402206,-3.0042 -0.04135,-0.87598 -0.222847,-1.66604 -0.549547,-2.49781 -1.103462,-2.80982 -2.804126,-5.57292 -4.172946,-8.30432 -1.761423,-3.51478 -3.338435,-7.29152 -5.427237,-10.66531 -0.580121,-0.93688 -1.325629,-1.9013 -2.238953,-2.62378 -0.680188,-0.5381 -1.238664,-0.68159 -2.133643,-0.79756 -3.591079,-0.46385 -7.509828,-0.20773 -11.14798,-0.20523 l -19.74768,0.0509 -0.0265,-43.84923 18.101272,-0.0843 c 3.830522,0.0159 7.900683,0.36624 11.685588,-0.0476 1.386097,-0.15184 3.335232,-0.49806 4.382981,-1.3632 2.355812,-1.94635 5.460528,-11.09663 7.122078,-14.25517 1.067162,-2.02895 2.555752,-3.89938 3.527796,-5.9642 0.365815,-0.77754 0.62108,-1.60931 0.601862,-2.45275 -0.02203,-0.96442 -0.487721,-1.76782 -1.133259,-2.535351 -2.115493,-2.515324 -5.06744,-4.697775 -7.638915,-6.874385 -4.707643,-3.984474 -9.499242,-7.917222 -14.109632,-11.983621 2.680958,-1.867597 5.106263,-4.105193 7.584368,-6.175767 q 6.302902,-5.172641 12.4772,-10.458576 l 9.515645,-8.062218 c 1.871197,-1.59137 3.910693,-3.160132 5.556811,-4.924613 3.860028,3.334995 7.926792,6.514815 11.863788,9.785904 3.313296,2.752757 6.73171,6.14832 10.5568,8.316337 0.82694,0.46861 1.54129,0.623116 2.53226,0.624034 1.04824,9.18e-4 2.01688,-0.199808 2.9865,-0.533682 3.33882,-1.149791 6.4185,-3.021059 9.73888,-4.287147 3.83479,-1.461891 12.62735,-3.127094 15.14894,-5.382043 0.52509,-0.470194 0.96476,-1.012053 1.39862,-1.545735 z"
     id="path4"
     style="stroke-width:0.899851" />
</svg>
