<?xml version="1.0" encoding="utf-8" ?>
<svg xmlns="http://www.w3.org/2000/svg" xmlns:xlink="http://www.w3.org/1999/xlink" width="297" height="297">
	<path fill="#FEFEFE" transform="matrix(0.970588 0 0 0.83427 0.00012207 0.00012207)" d="M0 0L306 0L306 355.562C305.733 355.732 305.443 355.876 305.129 355.93C302.994 356.298 300.281 355.998 298.091 355.999L282.1 356.002L222.166 356.001L3.39885 355.999C2.30532 355.998 0.949988 356.166 0 355.562L0 0Z"/>
	<path fill="#21395A" transform="matrix(0.970588 0 0 0.83427 0.00012207 0.00012207)" d="M200.661 139.522Q204.169 140.271 207.736 140.645Q211.303 141.019 214.89 141.014C217.205 147.434 219.933 153.501 221.379 160.228Q221.593 161.188 221.784 162.153Q221.975 163.118 222.142 164.087Q222.309 165.057 222.452 166.03Q222.595 167.003 222.714 167.98Q222.834 168.956 222.929 169.935Q223.024 170.914 223.096 171.895Q223.167 172.876 223.214 173.859Q223.261 174.841 223.284 175.825Q223.307 176.808 223.306 177.792Q223.305 178.776 223.28 179.759Q223.255 180.742 223.206 181.725Q223.156 182.707 223.083 183.688Q223.01 184.669 222.912 185.648Q222.815 186.627 222.693 187.603Q222.572 188.579 222.427 189.552Q222.281 190.525 222.112 191.494Q221.943 192.463 221.751 193.428Q221.558 194.392 221.341 195.352Q221.125 196.311 220.885 197.265Q220.645 198.219 220.382 199.167Q220.119 200.115 219.833 201.056Q219.546 201.997 219.237 202.931Q218.928 203.865 218.595 204.791Q218.263 205.716 217.909 206.634Q217.554 207.551 217.177 208.46Q216.8 209.368 216.4 210.267Q216.001 211.166 215.58 212.055Q215.159 212.944 214.716 213.823Q214.273 214.701 213.808 215.568Q213.344 216.435 212.859 217.291Q212.373 218.146 211.867 218.99Q211.361 219.833 210.834 220.664C207.696 225.108 204.458 229.251 200.524 233.035C200.982 229.367 200.741 225.429 200.74 221.732L200.737 202.04C200.735 181.204 200.913 160.357 200.661 139.522Z"/>
	<path fill="#426B9E" transform="matrix(0.970588 0 0 0.83427 0.00012207 0.00012207)" d="M185.528 244.219Q179.303 247.421 172.56 249.303Q171.161 249.674 169.745 249.975Q168.329 250.277 166.899 250.508Q165.47 250.739 164.031 250.899Q162.592 251.06 161.147 251.148Q159.702 251.237 158.255 251.255Q156.807 251.272 155.36 251.218Q153.914 251.164 152.471 251.038Q151.029 250.912 149.595 250.716Q148.16 250.519 146.737 250.251Q145.315 249.984 143.907 249.647Q142.499 249.309 141.109 248.903Q139.72 248.496 138.352 248.022Q136.984 247.547 135.642 247.005Q134.299 246.463 132.985 245.856Q131.671 245.248 130.388 244.577Q129.106 243.905 127.858 243.171C110.962 233.418 99.436 217.374 94.4249 198.636Q93.9306 196.734 93.5296 194.809Q93.1286 192.885 92.8217 190.943Q92.5149 189.002 92.303 187.048Q92.0911 185.094 91.9746 183.131Q91.8581 181.169 91.8374 179.204Q91.8166 177.238 91.8916 175.274Q91.9666 173.31 92.1371 171.352Q92.3077 169.394 92.5734 167.446Q92.8391 165.498 93.1994 163.566Q93.5597 161.634 94.0136 159.721Q94.4676 157.809 95.0142 155.921Q95.5607 154.033 96.1986 152.173Q96.8365 150.314 97.5642 148.488Q98.2919 146.662 99.1076 144.874Q99.9234 143.085 100.825 141.339Q101.727 139.592 102.713 137.892Q103.556 136.434 104.47 135.02Q105.383 133.606 106.367 132.24Q107.35 130.873 108.399 129.557Q109.449 128.24 110.563 126.978Q111.677 125.715 112.852 124.51Q114.027 123.304 115.261 122.158Q116.494 121.013 117.783 119.93Q119.073 118.847 120.414 117.829Q121.755 116.811 123.145 115.861Q124.535 114.912 125.971 114.032Q127.406 113.152 128.884 112.345Q130.361 111.538 131.877 110.805Q133.393 110.073 134.943 109.416Q136.494 108.759 138.075 108.181Q139.656 107.602 141.264 107.102Q142.871 106.603 144.502 106.184Q146.554 105.647 148.64 105.259Q150.726 104.87 152.834 104.633Q154.943 104.396 157.063 104.311Q159.183 104.227 161.303 104.295Q163.424 104.362 165.534 104.583Q167.644 104.803 169.733 105.174Q171.822 105.546 173.878 106.067Q175.935 106.588 177.949 107.255C180.421 108.064 183.036 108.982 185.29 110.295C185.451 112.138 185.057 117.686 185.772 119.023C185.152 120.043 185.478 232.441 185.528 244.219Z"/>
	<path fill="#FEFEFE" transform="matrix(0.970588 0 0 0.83427 0.00012207 0.00012207)" d="M145.649 122.106C145.666 122.104 145.682 122.1 145.699 122.099C149.547 121.823 158.589 121.555 162.144 122.227C163.529 122.489 164.953 123.013 166.027 123.95C167.56 125.288 168.427 127.099 168.532 129.13C168.629 130.996 168.184 132.971 166.897 134.38C163.237 138.388 153.204 136.85 148.026 137.021C142.812 137.193 138.185 138.971 134.612 142.871C130.787 147.045 128.194 154.456 128.484 160.15C128.952 169.363 135.418 169.106 142.501 169.035C147.209 168.988 158.292 168.389 162.359 169.305C163.824 169.635 165.215 170.273 166.314 171.312C168.257 173.151 168.689 175.57 168.771 178.13C169.101 188.422 168.803 198.823 168.795 209.123C168.791 213.898 169.284 222.361 168.546 226.81C168.225 228.747 167.58 230.525 166.198 231.958C164.045 234.189 161.332 234.987 158.3 235.065C145.139 235.4 135.397 234.634 125.507 225.138C120.86 220.528 115.411 212.097 114.834 205.421C114.647 203.245 115.207 201.188 116.636 199.517C118.04 197.876 119.873 196.882 122.043 196.732C128.386 196.293 128.744 203.991 130.569 208.248Q131.007 209.269 131.556 210.235Q132.106 211.201 132.761 212.099Q133.415 212.997 134.166 213.816Q134.918 214.635 135.756 215.364C138.79 218.011 143.492 220.094 147.589 219.768C149.353 219.627 151.181 218.782 152.309 217.395C153.14 216.374 153.551 215.133 153.752 213.846C154.223 210.83 153.854 207.394 153.876 204.332C153.91 199.572 154.358 194.464 153.874 189.742C153.681 187.856 153.271 186.002 151.719 184.767C146.316 180.469 124.383 186.416 118.102 181.194C116.012 179.456 115.048 176.806 114.807 174.167C114.489 170.674 114.778 166.959 114.773 163.444C114.758 151.604 114.919 143.322 122.987 133.773C128.833 126.853 136.641 122.873 145.649 122.106Z"/>
	<path fill="#21395A" transform="matrix(0.970588 0 0 0.83427 0.00012207 0.00012207)" d="M140.494 38.7621C156.903 38.7711 173.428 39.211 189.824 38.7936Q189.674 55.237 189.716 71.6799C189.708 79.7932 189.466 87.9955 189.927 96.0933C186.99 94.5051 183.703 93.4436 180.507 92.5153Q179.19 92.1351 177.861 91.802Q176.531 91.4689 175.191 91.1834Q173.85 90.8978 172.5 90.6601Q171.15 90.4225 169.793 90.233Q168.435 90.0435 167.072 89.9024Q165.709 89.7614 164.341 89.6689Q162.974 89.5764 161.604 89.5327Q160.234 89.489 158.863 89.494Q157.492 89.4991 156.123 89.5529Q154.753 89.6067 153.387 89.7092Q152.02 89.8117 150.657 89.9628Q149.295 90.1139 147.939 90.3134Q146.583 90.5129 145.235 90.7605Q143.887 91.0081 142.549 91.3035Q141.21 91.5989 139.883 91.9418Q138.556 92.2846 137.242 92.6745C115.987 99.0001 98.5773 114.254 88.1465 133.625C76.6525 154.971 73.6144 181.108 80.6712 204.365C87.4528 226.714 102.058 246.152 122.824 257.243Q124.415 258.095 126.045 258.868Q127.676 259.641 129.342 260.334Q131.008 261.026 132.706 261.637Q134.404 262.248 136.13 262.775Q137.856 263.302 139.605 263.745Q141.355 264.188 143.123 264.545Q144.892 264.902 146.676 265.172Q148.461 265.442 150.256 265.625Q152.051 265.808 153.853 265.904Q155.655 265.999 157.459 266.007Q159.264 266.014 161.067 265.934Q162.869 265.853 164.666 265.685Q166.463 265.517 168.249 265.262Q170.035 265.006 171.807 264.664Q173.579 264.322 175.332 263.894Q177.085 263.466 178.815 262.953C200.106 256.437 217.815 240.014 228.132 220.536Q228.651 219.544 229.146 218.539Q229.641 217.534 230.112 216.518Q230.582 215.501 231.027 214.473Q231.472 213.445 231.892 212.407Q232.312 211.369 232.707 210.321Q233.101 209.272 233.47 208.215Q233.839 207.157 234.182 206.091Q234.524 205.024 234.841 203.95Q235.158 202.876 235.448 201.794Q235.738 200.712 236.002 199.624Q236.266 198.535 236.503 197.44Q236.74 196.346 236.95 195.246Q237.161 194.145 237.344 193.041Q237.527 191.936 237.683 190.826Q237.84 189.717 237.969 188.605Q238.098 187.492 238.2 186.377Q238.302 185.261 238.376 184.144Q238.451 183.026 238.498 181.907Q238.545 180.788 238.565 179.668Q238.585 178.548 238.577 177.428Q238.57 176.308 238.535 175.189Q238.5 174.069 238.438 172.951Q238.376 171.833 238.286 170.716Q238.197 169.6 238.08 168.486Q237.963 167.372 237.819 166.261Q237.675 165.15 237.504 164.043Q237.333 162.936 237.135 161.834Q236.937 160.732 236.712 159.634Q236.487 158.537 236.235 157.446Q235.983 156.354 235.705 155.27Q235.427 154.185 235.122 153.107Q234.817 152.029 234.486 150.959C233.436 147.549 232.325 143.919 230.849 140.676C238.258 139.091 245.289 137.191 252.434 134.686C253.835 141.667 255.853 148.444 256.845 155.522C260.721 183.205 256.343 213.111 240.649 236.667C219.485 268.43 183.962 284.767 147.932 293.151Q147.884 300.471 147.992 307.79C149.562 308.412 153.704 306.832 155.473 306.363C167.37 303.205 179.077 299.616 190.395 294.728C222.187 280.998 250.593 256.872 263.558 224.14Q264.169 222.574 264.742 220.994Q265.315 219.413 265.849 217.819Q266.384 216.225 266.879 214.619Q267.375 213.013 267.831 211.395Q268.288 209.777 268.705 208.149Q269.122 206.52 269.499 204.882Q269.877 203.244 270.214 201.597Q270.552 199.95 270.849 198.296Q271.147 196.641 271.404 194.98Q271.661 193.319 271.878 191.652Q272.095 189.985 272.271 188.313Q272.447 186.641 272.583 184.966Q272.719 183.29 272.814 181.612Q272.909 179.933 272.963 178.253Q273.017 176.573 273.031 174.892Q273.044 173.211 273.017 171.53Q272.989 169.849 272.921 168.17Q272.853 166.49 272.744 164.813Q272.635 163.135 272.486 161.461Q272.336 159.786 272.146 158.116Q271.956 156.446 271.725 154.781Q271.495 153.115 271.224 151.456Q270.953 149.797 270.642 148.145Q270.33 146.493 269.979 144.849Q269.628 143.205 269.237 141.57Q268.846 139.936 268.416 138.311Q267.985 136.686 267.515 135.071Q267.046 133.457 266.537 131.855Q266.028 130.253 265.48 128.664Q264.933 127.074 264.347 125.499Q263.761 123.923 263.137 122.362Q262.513 120.801 261.851 119.256Q261.114 117.548 260.339 115.858C256.91 117.856 252.749 119.211 249.009 120.551C233.32 126.175 217.502 129.106 201.044 124.769Q193.126 122.645 185.772 119.023C185.057 117.686 185.451 112.138 185.29 110.295C205.864 120.861 219.27 122.621 241.513 115.44C249.209 112.955 256.536 109.679 263.783 106.112Q264.612 107.689 265.403 109.286Q266.194 110.883 266.946 112.498Q267.697 114.114 268.41 115.747Q269.122 117.381 269.794 119.031Q270.467 120.681 271.099 122.347Q271.731 124.013 272.322 125.694Q272.914 127.375 273.464 129.07Q274.015 130.764 274.524 132.472Q275.033 134.18 275.5 135.899Q275.968 137.619 276.393 139.349Q276.819 141.079 277.202 142.819Q277.586 144.56 277.927 146.309Q278.268 148.058 278.566 149.814Q278.865 151.571 279.12 153.335Q279.376 155.098 279.589 156.867Q279.802 158.636 279.971 160.41Q280.141 162.184 280.268 163.961Q280.394 165.739 280.478 167.519Q280.561 169.299 280.601 171.08Q280.642 172.862 280.638 174.643Q280.635 176.425 280.589 178.207Q280.542 179.988 280.453 181.768Q280.363 183.547 280.23 185.324Q280.097 187.101 279.921 188.874Q279.745 190.648 279.526 192.416Q279.307 194.184 279.045 195.947Q278.783 197.709 278.479 199.465Q278.174 201.221 277.827 202.969Q277.48 204.716 277.09 206.455Q276.701 208.194 276.269 209.923Q275.837 211.651 275.364 213.369Q274.89 215.087 274.375 216.793C263.719 251.876 237.785 278.344 205.902 295.285C187.836 304.884 167.948 311.529 147.972 315.764C146.456 316.085 141.721 317.397 140.521 317.045C140.424 317.016 140.329 316.979 140.234 316.947L140.163 297.638C140.149 293.328 140.243 289.003 139.931 284.701C139.104 283.578 138.463 282.924 137.199 282.321C133.28 280.451 128.686 279.859 124.622 278.256C120.896 276.787 113.668 272.299 110.533 271.851C109.151 271.654 107.966 271.884 106.853 272.74C102.617 276 98.8188 280.58 95.0799 284.416C91.6979 287.884 87.8822 291.314 84.8107 295.046C78.2565 287.376 69.7867 279.612 62.538 272.442L53.5071 263.601C51.6935 261.836 49.9219 259.919 47.8955 258.401C51.823 256.015 57.1686 250.012 60.5915 246.682C63.5605 243.794 66.8219 240.995 69.5721 237.907C70.4881 236.879 71.5906 235.623 72.0471 234.306C72.0045 233.256 71.8175 232.309 71.4809 231.312C70.344 227.944 68.5918 224.632 67.1815 221.358C65.3667 217.145 63.7419 212.618 61.5898 208.574C60.9921 207.451 60.224 206.295 59.283 205.429C58.5822 204.784 58.0068 204.612 57.0847 204.473C53.3848 203.917 49.3473 204.224 45.5989 204.227L25.2528 204.288L25.2255 151.728L43.8753 151.627C47.8219 151.646 52.0154 152.066 55.915 151.57C57.3431 151.388 59.3513 150.973 60.4308 149.936C62.858 147.603 66.0568 136.635 67.7687 132.849C68.8682 130.417 70.4019 128.175 71.4034 125.7C71.7803 124.768 72.0433 123.771 72.0235 122.76C72.0008 121.604 71.521 120.641 70.8559 119.721C68.6763 116.706 65.6349 114.09 62.9855 111.481C58.1352 106.705 53.1984 101.991 48.4483 97.1168C51.2105 94.8782 53.7093 92.1961 56.2625 89.7142Q62.7564 83.514 69.1178 77.178L78.9218 67.5142C80.8497 65.6067 82.951 63.7263 84.647 61.6113C88.624 65.6088 92.814 69.4203 96.8703 73.3412C100.284 76.6408 103.806 80.7109 107.747 83.3096C108.599 83.8713 109.335 84.0565 110.356 84.0576C111.436 84.0587 112.434 83.8181 113.433 83.4179C116.873 82.0397 120.046 79.7967 123.467 78.2791C127.418 76.5268 136.477 74.5308 139.075 71.8279C139.616 71.2643 140.069 70.6148 140.516 69.9751L140.494 38.7621Z"/>
</svg>
